Normalized EMG Linear Envelopes
nRows=282
nColumns=4

endheader
time	 med_gas_r	  soleus_r	 tib_ant_r	
4.09147	  0.078649	  0.129592	  0.029174	
4.12474	  0.075473	  0.121504	  0.029554	
4.158	  0.072755	  0.114172	  0.029880	
4.19126	  0.070830	  0.108244	  0.030123	
4.22453	  0.069816	  0.103987	  0.030279	
4.25779	  0.069603	  0.101286	  0.030362	
4.29106	  0.069936	  0.099820	  0.030392	
4.32432	  0.070537	  0.099288	  0.030390	
4.35758	  0.071192	  0.099553	  0.030384	
4.39085	  0.071795	  0.100610	  0.030415	
4.42411	  0.072371	  0.102425	  0.030512	
4.45738	  0.073099	  0.104774	  0.030681	
4.49064	  0.074289	  0.107255	  0.030910	
4.5239	  0.076255	  0.109459	  0.031185	
4.55717	  0.079113	  0.111198	  0.031503	
4.59043	  0.082624	  0.112580	  0.031851	
4.6237	  0.086199	  0.113895	  0.032190	
4.65696	  0.089104	  0.115391	  0.032464	
4.69022	  0.090748	  0.117081	  0.032625	
4.72349	  0.090901	  0.118680	  0.032652	
4.75675	  0.089720	  0.119701	  0.032542	
4.79002	  0.087614	  0.119651	  0.032300	
4.82328	  0.085076	  0.118243	  0.031950	
4.85654	  0.082580	  0.115517	  0.031548	
4.88981	  0.080526	  0.111833	  0.031161	
4.92307	  0.079176	  0.107743	  0.030837	
4.95634	  0.078588	  0.103843	  0.030587	
4.9896	  0.078591	  0.100673	  0.030400	
5.02286	  0.078867	  0.098650	  0.030272	
5.05613	  0.079093	  0.097981	  0.030215	
5.08939	  0.079063	  0.098572	  0.030247	
5.12266	  0.078726	  0.100032	  0.030366	
5.15592	  0.078162	  0.101828	  0.030542	
5.18918	  0.077551	  0.103499	  0.030728	
5.22245	  0.077154	  0.104740	  0.030877	
5.25571	  0.077235	  0.105364	  0.030967	
5.28898	  0.077894	  0.105243	  0.031015	
5.32224	  0.078910	  0.104367	  0.031058	
5.3555	  0.079805	  0.102890	  0.031134	
5.38877	  0.080187	  0.101067	  0.031243	
5.42203	  0.080142	  0.099124	  0.031331	
5.4553	  0.080312	  0.097198	  0.031286	
5.48856	  0.081537	  0.095392	  0.030976	
5.52182	  0.084284	  0.093805	  0.030305	
5.55509	  0.088326	  0.092472	  0.029284	
5.58835	  0.092916	  0.091305	  0.028098	
5.62162	  0.097344	  0.090176	  0.027134	
5.65488	  0.101396	  0.089118	  0.027002	
5.68814	  0.105284	  0.088468	  0.028543	
5.72141	  0.109100	  0.088790	  0.032789	
5.75467	  0.112371	  0.090569	  0.040791	
5.78794	  0.114234	  0.093866	  0.053291	
5.8212	  0.114099	  0.098175	  0.070342	
5.85446	  0.112129	  0.102615	  0.091113	
5.88773	  0.109087	  0.106395	  0.114077	
5.92099	  0.105809	  0.109247	  0.137468	
5.95426	  0.102914	  0.111524	  0.159720	
5.98752	  0.100991	  0.113893	  0.179721	
6.02078	  0.100913	  0.116842	  0.196888	
6.05405	  0.103870	  0.120365	  0.211205	
6.08731	  0.111162	  0.123993	  0.223173	
6.12058	  0.124142	  0.127092	  0.233696	
6.15384	  0.144358	  0.129153	  0.243974	
6.1871	  0.173361	  0.129897	  0.255384	
6.22037	  0.211481	  0.129243	  0.269146	
6.25363	  0.255902	  0.127292	  0.285662	
6.2869	  0.299914	  0.124401	  0.303955	
6.32016	  0.335314	  0.121251	  0.321864	
6.35342	  0.357361	  0.118734	  0.337198	
6.38669	  0.368416	  0.117666	  0.349132	
6.41995	  0.376402	  0.118473	  0.358722	
6.45322	  0.388653	  0.121043	  0.368101	
6.48648	  0.406339	  0.124801	  0.379102	
6.51974	  0.424473	  0.128992	  0.392508	
6.55301	  0.437276	  0.133043	  0.408376	
6.58627	  0.443572	  0.136816	  0.426612	
6.61954	  0.447141	  0.140561	  0.446804	
6.6528	  0.452273	  0.144605	  0.467426	
6.68606	  0.459561	  0.148988	  0.485594	
6.71933	  0.466284	  0.153279	  0.498101	
6.75259	  0.470485	  0.156699	  0.503007	
6.78586	  0.473913	  0.158469	  0.500368	
6.81912	  0.480597	  0.158157	  0.491676	
6.85238	  0.492928	  0.155859	  0.478885	
6.88565	  0.509637	  0.152163	  0.464037	
6.91891	  0.527385	  0.148000	  0.449448	
6.95218	  0.543557	  0.144442	  0.437670	
6.98544	  0.557179	  0.142425	  0.430776	
7.0187	  0.567835	  0.142423	  0.429444	
7.05197	  0.574558	  0.144276	  0.432645	
7.08523	  0.575817	  0.147367	  0.438329	
7.1185	  0.570197	  0.151080	  0.444652	
7.15176	  0.557403	  0.155154	  0.450846	
7.18502	  0.539574	  0.159598	  0.457116	
7.21829	  0.521881	  0.164231	  0.463763	
7.25155	  0.510794	  0.168311	  0.470339	
7.28482	  0.510442	  0.170685	  0.475597	
7.31808	  0.520056	  0.170390	  0.478261	
7.35134	  0.534878	  0.167248	  0.478023	
7.38461	  0.549334	  0.162030	  0.475881	
7.41787	  0.559429	  0.156155	  0.473394	
7.45114	  0.563349	  0.151148	  0.471433	
7.4844	  0.561617	  0.148096	  0.469574	
7.51766	  0.557362	  0.147275	  0.466778	
7.55093	  0.555418	  0.148113	  0.462638	
7.58419	  0.559825	  0.149559	  0.457898	
7.61746	  0.571628	  0.150677	  0.453728	
7.65072	  0.588679	  0.151079	  0.450610	
7.68398	  0.606907	  0.150897	  0.448027	
7.71725	  0.621676	  0.150464	  0.445219	
7.75051	  0.629146	  0.150036	  0.442108	
7.78378	  0.627748	  0.149814	  0.439398	
7.81704	  0.618554	  0.150069	  0.437841	
7.8503	  0.603715	  0.151129	  0.437570	
7.88357	  0.584723	  0.153173	  0.438150	
7.91683	  0.562900	  0.156103	  0.439126	
7.9501	  0.541221	  0.159684	  0.440299	
7.98336	  0.524173	  0.163810	  0.441372	
8.01662	  0.514867	  0.168582	  0.441401	
8.04989	  0.512792	  0.174090	  0.438777	
8.08315	  0.515128	  0.180123	  0.432068	
8.11642	  0.519906	  0.186061	  0.421167	
8.14968	  0.527091	  0.190992	  0.407759	
8.18294	  0.536790	  0.193919	  0.394660	
8.21621	  0.547566	  0.193983	  0.384539	
8.24947	  0.557149	  0.190756	  0.379007	
8.28274	  0.564257	  0.184552	  0.378442	
8.316	  0.569157	  0.176521	  0.382274	
8.34926	  0.572834	  0.168323	  0.389367	
8.38253	  0.576202	  0.161463	  0.398454	
8.41579	  0.579724	  0.156700	  0.408669	
8.44906	  0.582940	  0.153953	  0.419851	
8.48232	  0.584344	  0.152732	  0.432201	
8.51558	  0.582552	  0.152722	  0.445391	
8.54885	  0.577859	  0.154032	  0.457978	
8.58211	  0.572090	  0.156965	  0.467871	
8.61538	  0.566731	  0.161544	  0.473633	
8.64864	  0.561938	  0.167205	  0.475517	
8.6819	  0.557775	  0.172897	  0.475305	
8.71517	  0.555493	  0.177514	  0.475135	
8.74843	  0.556422	  0.180342	  0.476351	
8.7817	  0.559827	  0.181260	  0.479258	
8.81496	  0.563177	  0.180647	  0.483622	
8.84822	  0.565037	  0.179123	  0.489111	
8.88149	  0.566790	  0.177284	  0.495183	
8.91475	  0.570654	  0.175511	  0.500716	
8.94802	  0.576506	  0.173885	  0.503983	
8.98128	  0.581579	  0.172248	  0.503135	
9.01454	  0.583054	  0.170326	  0.496868	
9.04781	  0.579853	  0.167837	  0.484935	
9.08107	  0.571833	  0.164593	  0.468301	
9.11434	  0.558863	  0.160653	  0.448926	
9.1476	  0.542260	  0.156468	  0.429210	
9.18086	  0.526830	  0.152822	  0.411329	
9.21413	  0.519672	  0.150466	  0.396799	
9.24739	  0.525440	  0.149675	  0.386544	
9.28066	  0.542469	  0.150050	  0.381316	
9.31392	  0.563772	  0.150756	  0.381952	
9.34718	  0.581805	  0.151014	  0.389113	
9.38045	  0.592339	  0.150539	  0.402640	
9.41371	  0.594757	  0.149617	  0.421039	
9.44698	  0.590325	  0.148790	  0.441441	
9.48024	  0.581000	  0.148429	  0.460135	
9.5135	  0.569231	  0.148539	  0.473539	
9.54677	  0.557805	  0.148954	  0.479366	
9.58003	  0.549363	  0.149692	  0.477542	
9.6133	  0.545678	  0.151087	  0.470319	
9.64656	  0.546719	  0.153557	  0.461387	
9.67982	  0.550242	  0.157235	  0.454343	
9.71309	  0.553149	  0.161795	  0.451391	
9.74635	  0.554125	  0.166611	  0.452888	
9.77962	  0.554789	  0.171053	  0.457795	
9.81288	  0.557692	  0.174684	  0.464463	
9.84614	  0.563311	  0.177281	  0.471191	
9.87941	  0.569537	  0.178714	  0.476394	
9.91267	  0.573933	  0.178811	  0.478691	
9.94594	  0.575632	  0.177283	  0.477289	
9.9792	  0.574837	  0.173809	  0.472553	
10.0125	  0.571593	  0.168259	  0.466235	
10.0457	  0.566105	  0.160915	  0.461034	
10.079	  0.559888	  0.152505	  0.459707	
10.1123	  0.555382	  0.144033	  0.464214	
10.1455	  0.554107	  0.136554	  0.475120	
10.1788	  0.555896	  0.131010	  0.491282	
10.212	  0.560114	  0.128090	  0.509916	
10.2453	  0.566631	  0.128090	  0.527203	
10.2786	  0.574877	  0.130812	  0.539239	
10.3118	  0.582789	  0.135599	  0.542915	
10.3451	  0.588092	  0.141512	  0.536502	
10.3784	  0.590600	  0.147536	  0.520116	
10.4116	  0.591981	  0.152747	  0.496116	
10.4449	  0.592783	  0.156446	  0.469013	
10.4782	  0.590881	  0.158312	  0.444406	
10.5114	  0.584024	  0.158514	  0.427226	
10.5447	  0.573359	  0.157696	  0.420274	
10.578	  0.563133	  0.156756	  0.423846	
10.6112	  0.556894	  0.156510	  0.436333	
10.6445	  0.555193	  0.157410	  0.455114	
10.6777	  0.557266	  0.159428	  0.477229	
10.711	  0.563445	  0.162111	  0.499804	
10.7443	  0.574468	  0.164735	  0.520395	
10.7775	  0.588927	  0.166556	  0.537248	
10.8108	  0.603021	  0.167109	  0.549316	
10.8441	  0.613346	  0.166433	  0.555986	
10.8773	  0.619121	  0.165039	  0.556759	
10.9106	  0.621310	  0.163589	  0.551229	
10.9439	  0.620577	  0.162538	  0.539374	
10.9771	  0.617113	  0.162039	  0.521882	
11.0104	  0.611861	  0.162098	  0.500211	
11.0436	  0.606368	  0.162719	  0.476286	
11.0769	  0.600946	  0.163858	  0.451932	
11.1102	  0.593974	  0.165287	  0.428185	
11.1434	  0.583821	  0.166623	  0.404873	
11.1767	  0.570873	  0.167532	  0.380884	
11.21	  0.556792	  0.167898	  0.355152	
11.2432	  0.542279	  0.167725	  0.327699	
11.2765	  0.527036	  0.166863	  0.299976	
11.3098	  0.512239	  0.164875	  0.274228	
11.343	  0.501486	  0.161265	  0.252311	
11.3763	  0.497580	  0.155927	  0.234707	
11.4096	  0.498230	  0.149427	  0.220331	
11.4428	  0.496081	  0.142877	  0.207289	
11.4761	  0.483975	  0.137462	  0.194017	
11.5093	  0.460668	  0.133967	  0.180000	
11.5426	  0.432104	  0.132578	  0.165657	
11.5759	  0.407935	  0.132965	  0.151771	
11.6091	  0.396460	  0.134453	  0.139080	
11.6424	  0.400814	  0.136144	  0.128217	
11.6757	  0.417735	  0.137081	  0.119770	
11.7089	  0.439621	  0.136566	  0.114192	
11.7422	  0.459310	  0.134505	  0.111576	
11.7755	  0.474481	  0.131495	  0.111442	
11.8087	  0.487748	  0.128530	  0.112688	
11.842	  0.502057	  0.126511	  0.113819	
11.8752	  0.515666	  0.125875	  0.113400	
11.9085	  0.521526	  0.126501	  0.110587	
11.9418	  0.511545	  0.127855	  0.105412	
11.975	  0.481835	  0.129263	  0.098677	
12.0083	  0.434910	  0.130176	  0.091520	
12.0416	  0.378098	  0.130329	  0.084904	
12.0748	  0.320197	  0.129740	  0.079349	
12.1081	  0.268513	  0.128612	  0.074970	
12.1414	  0.227254	  0.127238	  0.071696	
12.1746	  0.197503	  0.125965	  0.069479	
12.2079	  0.178504	  0.125144	  0.068347	
12.2412	  0.169189	  0.124997	  0.068321	
12.2744	  0.168601	  0.125483	  0.069289	
12.3077	  0.174988	  0.126352	  0.070934	
12.3409	  0.185023	  0.127389	  0.072795	
12.3742	  0.194655	  0.128632	  0.074439	
12.4075	  0.201182	  0.130280	  0.075629	
12.4407	  0.204495	  0.132347	  0.076347	
12.474	  0.206184	  0.134440	  0.076670	
12.5073	  0.207592	  0.135928	  0.076665	
12.5405	  0.208915	  0.136364	  0.076395	
12.5738	  0.209942	  0.135726	  0.075960	
12.6071	  0.210959	  0.134268	  0.075445	
12.6403	  0.212486	  0.132205	  0.074784	
12.6736	  0.214406	  0.129577	  0.073733	
12.7068	  0.215963	  0.126404	  0.072031	
12.7401	  0.216755	  0.122890	  0.069662	
12.7734	  0.217374	  0.119458	  0.066972	
12.8066	  0.218728	  0.116633	  0.064481	
12.8399	  0.220896	  0.114934	  0.062557	
12.8732	  0.222948	  0.114808	  0.061208	
12.9064	  0.223858	  0.116538	  0.060174	
12.9397	  0.223267	  0.120066	  0.059186	
12.973	  0.221299	  0.124860	  0.058173	
13.0062	  0.218068	  0.129976	  0.057297	
13.0395	  0.213852	  0.134348	  0.056817	
13.0728	  0.209658	  0.137146	  0.056874	
13.106	  0.206980	  0.138018	  0.057334	
13.1393	  0.206550	  0.137115	  0.057814	
13.1725	  0.207457	  0.134935	  0.057907	
13.2058	  0.207867	  0.132073	  0.057382	
13.2391	  0.206689	  0.129041	  0.056240	
13.2723	  0.204293	  0.126232	  0.054638	
13.3056	  0.201417	  0.123993	  0.052815	
13.3389	  0.197617	  0.122673	  0.051023	
13.3721	  0.191220	  0.122526	  0.049450	
13.4054	  0.181060	  0.123555	  0.048168	
13.4387	  0.168216	  0.125412	  0.047161	
